<svg viewBox="0 0 512 512" xmlns="http://www.w3.org/2000/svg"><path d="M459.494 135.64a102.05 102.05 0 0 0-72.934-30.37h-.37a30.517 30.517 0 0 1-27.604-17.578 113.113 113.113 0 0 0-205.172 0 30.519 30.519 0 0 1-27.621 17.578h-.353A102.76 102.76 0 0 0 22.682 208.807c.417 56.233 47.056 101.982 103.966 101.982a6.5 6.5 0 1 0 0-13c-49.795 0-90.602-39.96-90.966-89.078a89.76 89.76 0 0 1 89.758-90.442h.37a43.555 43.555 0 0 0 39.393-25.097 100.112 100.112 0 0 1 181.593 0 43.546 43.546 0 0 0 39.375 25.097h.389a89.76 89.76 0 0 1 89.757 90.442c-.364 49.118-41.171 89.078-90.965 89.078a6.5 6.5 0 0 0 0 13c56.91 0 103.548-45.75 103.965-101.983a102.063 102.063 0 0 0-29.823-73.166Z" fill="#ffffff" class="fill-000000"></path><path d="M124.578 138.481a69.549 69.549 0 0 0-69.546 70.079 6.5 6.5 0 0 0 6.499 6.452h.05a6.501 6.501 0 0 0 6.45-6.548 56.548 56.548 0 0 1 56.547-56.983h.374a6.5 6.5 0 0 0 0-13ZM256 142.481a59.2 59.2 0 0 0-59.133 59.133v2.186a5.614 5.614 0 0 1-5.607 5.607h-10.293a24.688 24.688 0 0 0-24.66 24.66V345.85a24.688 24.688 0 0 0 24.66 24.66h150.066a24.688 24.688 0 0 0 24.66-24.66V234.066a24.688 24.688 0 0 0-24.66-24.659h-11.464a4.441 4.441 0 0 1-4.436-4.435v-3.357A59.2 59.2 0 0 0 256 142.481Zm-24.656 60.62a24.657 24.657 0 1 1 49.313 0v1.87a4.441 4.441 0 0 1-4.435 4.436h-40.47a4.413 4.413 0 0 1-4.409-4.408Zm40.314 94.759a5.569 5.569 0 0 0-2.198 4.372v11.781a13.46 13.46 0 0 1-26.92 0v-11.772a5.277 5.277 0 0 0-1.962-4.198 25.222 25.222 0 0 1-9.737-23.395 25.367 25.367 0 0 1 50.523 3.263 25.224 25.224 0 0 1-9.706 19.949ZM371.596 403.51H145.341a35.82 35.82 0 0 0 0 71.638h226.255a35.82 35.82 0 0 0 0-71.638Zm-182.924 41.82H160.82a6 6 0 0 1 0-12h27.852a6 6 0 0 1 0 12Zm55.815 0h-27.853a6 6 0 1 1 0-12h27.853a6 6 0 1 1 0 12Zm55.815 0H272.45a6 6 0 0 1 0-12h27.852a6 6 0 0 1 0 12Zm55.815 0h-27.853a6 6 0 0 1 0-12h27.853a6 6 0 0 1 0 12Z" fill="#ffffff" class="fill-000000"></path></svg>