<svg viewBox="0 0 32 32" xml:space="preserve" xmlns="http://www.w3.org/2000/svg" enable-background="new 0 0 32 32"><path d="m30.105 11.778-3.007-.318-.04-.097 1.901-2.351a1 1 0 0 0-.07-1.336L24.324 3.11a.998.998 0 0 0-1.336-.07l-2.351 1.901-.096-.04-.319-3.007A1 1 0 0 0 19.228 1h-6.456a1 1 0 0 0-.994.895l-.319 3.007-.096.04-2.351-1.901a.998.998 0 0 0-1.336.07L3.11 7.676a1 1 0 0 0-.07 1.336l1.901 2.351-.04.097-3.007.318a1 1 0 0 0-.895.994v6.456a1 1 0 0 0 .895.994l3.007.318.04.097-1.901 2.351a1 1 0 0 0 .07 1.336l4.565 4.565a1 1 0 0 0 1.336.07l2.351-1.901.096.04.319 3.007a1 1 0 0 0 .994.895h6.456a1 1 0 0 0 .994-.895l.319-3.007.096-.04 2.351 1.901a1 1 0 0 0 1.336-.07l4.565-4.565a1 1 0 0 0 .07-1.336l-1.901-2.351.04-.097 3.007-.318a1 1 0 0 0 .895-.994v-6.456a1 1 0 0 0-.895-.994zM29 18.328l-2.724.288a.999.999 0 0 0-.839.665c-.125.36-.275.719-.444 1.069-.17.348-.121.763.122 1.065l1.723 2.13-3.292 3.293-2.131-1.723a.997.997 0 0 0-1.065-.122c-.355.172-.714.32-1.066.443a1.001 1.001 0 0 0-.668.84L18.328 29h-4.656l-.288-2.725a1.001 1.001 0 0 0-.668-.84 9.73 9.73 0 0 1-1.066-.442.998.998 0 0 0-1.065.122l-2.131 1.723-3.292-3.292 1.723-2.131c.243-.302.291-.717.122-1.065-.17-.35-.319-.71-.444-1.069a.999.999 0 0 0-.84-.665L3 18.328v-4.656l2.724-.288c.385-.04.712-.3.839-.665.125-.36.275-.719.444-1.069a1.002 1.002 0 0 0-.122-1.065l-1.723-2.13 3.292-3.293 2.131 1.723a.996.996 0 0 0 1.065.122 9.73 9.73 0 0 1 1.066-.443c.367-.126.627-.454.668-.84L13.672 3h4.656l.288 2.725c.041.385.301.713.668.84.352.122.711.27 1.066.442a.995.995 0 0 0 1.065-.122l2.131-1.723 3.292 3.292-1.723 2.131a1.002 1.002 0 0 0-.122 1.065c.17.35.319.71.444 1.069a.999.999 0 0 0 .84.665l2.723.288v4.656z" fill="#bfc0c0" class="fill-000000"></path><path d="M16 7.83c-4.505 0-8.17 3.665-8.17 8.17s3.665 8.17 8.17 8.17 8.17-3.665 8.17-8.17S20.504 7.83 16 7.83zm0 14.34c-3.402 0-6.17-2.768-6.17-6.17S12.599 9.83 16 9.83s6.17 2.768 6.17 6.17-2.768 6.17-6.17 6.17z" fill="#bfc0c0" class="fill-000000"></path></svg>