<svg viewBox="0 0 64 64" xml:space="preserve" xmlns="http://www.w3.org/2000/svg"><g fill="none" stroke="#ffffff" stroke-linecap="round" stroke-linejoin="round" stroke-miterlimit="10" stroke-width="2" class="stroke-4d4d4d"><path d="M5 13.8v16.9c0 1.1.9 2 2 2h16c1.1 0 2-.9 2-2V13.8H5zM59 47.7c0 1.1-.9 2-2 2H41c-1.1 0-2-.9-2-2v-10c0-1.1.9-2 2-2h16c1.1 0 2 .9 2 2v10z"></path><path d="M15 32.7v16.6c0 4.4 3.6 8 8 8h2c4.4 0 8-3.6 8-8V26.7c0-4.4 3.6-8 8-8h0c4.4 0 8 3.6 8 8v8M7.5 6.7h15v7.1h-15zM41.5 49.7h15v3.6h-15zM21.3 17.7v10.5M55.7 38.9v6.8"></path></g></svg>