<svg viewBox="0 0 512 512" xmlns="http://www.w3.org/2000/svg"><path d="M156.293 90.239a94.94 94.94 0 0 1 172.213 0 41.75 41.75 0 0 0 37.75 24.062h.371a85.09 85.09 0 0 1 85.088 85.736 83.24 83.24 0 0 1-7.001 32.95 6.5 6.5 0 1 0 11.908 5.213 96.173 96.173 0 0 0 8.093-38.065 98.09 98.09 0 0 0-98.088-98.833h-.354a28.72 28.72 0 0 1-25.978-16.543 107.94 107.94 0 0 0-195.79 0 28.721 28.721 0 0 1-25.996 16.543h-.336a98.09 98.09 0 0 0-98.088 98.833c.399 53.677 44.917 97.347 99.238 97.347h41.52a6.5 6.5 0 1 0 0-13h-41.52c-47.206 0-85.892-37.882-86.238-84.444a85.09 85.09 0 0 1 85.088-85.736h.353a41.759 41.759 0 0 0 37.767-24.063Z" fill="#ffffff" class="fill-000000"></path><path d="M119.256 132.902a66.49 66.49 0 0 0-66.488 66.997 6.5 6.5 0 0 0 6.499 6.452h.049a6.5 6.5 0 0 0 6.452-6.547 53.49 53.49 0 0 1 53.48-53.902h.365a6.5 6.5 0 0 0 .009-13ZM268.343 305.937a10.17 10.17 0 0 0 2.313 11.283l49.115 48.34a10.355 10.355 0 0 0 14.463 0l49.113-48.34a10.335 10.335 0 0 0-7.25-17.7H357.88a3.97 3.97 0 0 1-3.966-3.966v-63.245a12.148 12.148 0 0 0-12.135-12.134h-29.553a12.148 12.148 0 0 0-12.134 12.134v63.245a3.97 3.97 0 0 1-3.967 3.966h-18.218a10.169 10.169 0 0 0-9.563 6.417ZM299.53 200.483h53a6.5 6.5 0 0 0 0-13h-52.999a6.5 6.5 0 0 0 0 13ZM299.53 175.824h53a6.5 6.5 0 0 0 0-13h-52.999a6.5 6.5 0 0 0 0 13Z" fill="#ffffff" class="fill-000000"></path><path d="M437.279 260.942h-45.244a6.5 6.5 0 0 0 0 13h45.243a8.35 8.35 0 0 1 8.341 8.341v119.926H205.562V282.283a8.35 8.35 0 0 1 8.34-8.34h51.216a6.5 6.5 0 0 0 0-13h-51.215a21.365 21.365 0 0 0-21.341 21.34v141.079a21.365 21.365 0 0 0 21.34 21.34l92.702.008a5.5 5.5 0 0 1 0 11H288.67v24.735h-10.262a6.5 6.5 0 0 0 0 13h94.364a6.5 6.5 0 0 0 0-13h-11.86v-33.746a1.998 1.998 0 0 1 1.996-1.997h74.37a21.365 21.365 0 0 0 21.341-21.34V282.283a21.365 21.365 0 0 0-21.34-21.34Z" fill="#ffffff" class="fill-000000"></path></svg>