<svg width="512" height="512" xmlns="http://www.w3.org/2000/svg">

 <g>
  <title>background</title>
  <rect fill="none" id="canvas_background" height="402" width="582" y="-1" x="-1"/>
 </g>
 <g>
  <title>Layer 1</title>
  <circle id="svg_1" r="100.717" fill="#E8F3F9" cy="200.368" cx="364.935"/>
  <circle id="svg_2" stroke-width="10" stroke-miterlimit="10" stroke-linecap="round" stroke="#F28649" r="100.717" fill="none" cy="180.369" cx="344.936"/>
  <line id="svg_3" y2="25.034" y1="59.099" x2="344.936" x1="344.936" stroke-width="10" stroke-miterlimit="10" stroke-linecap="round" stroke="#F28649" fill="none"/>
  <line id="svg_4" y2="301.639" y1="335.703" x2="344.936" x1="344.936" stroke-width="10" stroke-miterlimit="10" stroke-linecap="round" stroke="#F28649" fill="none"/>
  <line id="svg_5" y2="180.369" y1="180.369" x2="500.27" x1="466.205" stroke-width="10" stroke-miterlimit="10" stroke-linecap="round" stroke="#F28649" fill="none"/>
  <line id="svg_6" y2="70.53" y1="94.618" x2="454.773" x1="430.686" stroke-width="10" stroke-miterlimit="10" stroke-linecap="round" stroke="#F28649" fill="none"/>
  <line id="svg_7" y2="266.119" y1="290.207" x2="259.186" x1="235.097" stroke-width="10" stroke-miterlimit="10" stroke-linecap="round" stroke="#F28649" fill="none"/>
  <line id="svg_8" y2="290.207" y1="266.119" x2="454.773" x1="430.686" stroke-width="10" stroke-miterlimit="10" stroke-linecap="round" stroke="#F28649" fill="none"/>
  <line id="svg_9" y2="94.618" y1="70.53" x2="259.186" x1="235.097" stroke-width="10" stroke-miterlimit="10" stroke-linecap="round" stroke="#F28649" fill="none"/>
  <path id="svg_10" fill="#E8F3F9" d="m336.986,268.933c-2.098,0 -4.172,0.111 -6.213,0.322c-0.543,-49.181 -40.574,-88.886 -89.883,-88.886c-37.972,0 -70.445,23.544 -83.619,56.83c-5.917,-1.465 -12.104,-2.247 -18.474,-2.247c-42.341,0 -76.664,34.323 -76.664,76.664c0,42.114 33.96,76.293 75.99,76.655l0,0.009l198.864,0c32.955,0 59.674,-26.718 59.674,-59.675c-0.003,-32.955 -26.72,-59.672 -59.675,-59.672z"/>
  <path id="svg_11" stroke-width="10" stroke-miterlimit="10" stroke-linejoin="round" stroke="#65BAE0" fill="none" d="m320.646,252.594c-2.098,0 -4.17,0.111 -6.213,0.322c-0.541,-49.182 -40.572,-88.887 -89.882,-88.887c-37.973,0 -70.446,23.544 -83.619,56.83c-5.917,-1.465 -12.104,-2.247 -18.475,-2.247c-42.34,0 -76.664,34.324 -76.664,76.665c0,42.114 33.96,76.293 75.99,76.655l0,0.009l198.865,0c32.955,0 59.672,-26.718 59.672,-59.675c0,-32.954 -26.718,-59.672 -59.674,-59.672z"/>
  <path id="svg_12" fill="#65BAE0" d="m27.987,275.099c0.548,-7.81 2.183,-15.319 4.758,-22.376c0,-0.107 -0.006,-0.214 -0.006,-0.323c0,-37.817 30.766,-68.583 68.583,-68.583c5.583,0 11.145,0.676 16.53,2.011c1.988,0.492 4.028,-0.562 4.781,-2.462c12.33,-31.156 41.95,-51.287 75.461,-51.287c13.419,0 26.321,3.246 37.841,9.34c8.448,1.434 16.52,3.965 24.067,7.441c-16.715,-16.108 -38.611,-24.951 -61.909,-24.951c-18.258,0 -35.813,5.473 -50.771,15.829c-13.644,9.446 -24.284,22.324 -30.937,37.394c-4.946,-0.985 -9.998,-1.483 -15.064,-1.483c-42.321,0 -76.752,34.432 -76.752,76.752c0,7.7 1.139,15.303 3.384,22.601c0.012,0.031 0.024,0.064 0.034,0.097z"/>
 </g>
</svg>