<svg width="512" height="512" xmlns="http://www.w3.org/2000/svg">

 <g>
  <title>background</title>
  <rect fill="none" id="canvas_background" height="402" width="582" y="-1" x="-1"/>
 </g>
 <g>
  <title>Layer 1</title>
  <path id="svg_1" fill="#E8F3F9" d="m356.714,215.093c-52.189,-51.477 -56.044,-132.565 -11.581,-188.424c-18.445,6.928 -35.742,17.716 -50.604,32.374c-56.362,55.591 -56.362,145.722 0,201.313c56.363,55.59 147.745,55.59 204.107,0c4.172,-4.115 8.027,-8.424 11.582,-12.888c-51.514,19.347 -112.002,8.56 -153.504,-32.375z"/>
  <path id="svg_2" stroke-width="10" stroke-miterlimit="10" stroke-linejoin="round" stroke-linecap="round" stroke="#9B64E2" fill="none" d="m344.379,202.721c-52.188,-51.477 -56.045,-132.564 -11.581,-188.424c-18.445,6.929 -35.742,17.717 -50.603,32.375c-56.363,55.59 -56.363,145.723 0,201.313c56.363,55.589 147.745,55.591 204.108,0c4.172,-4.115 8.026,-8.422 11.579,-12.889c-51.512,19.347 -112,8.56 -153.503,-32.375z"/>
  <path id="svg_5" fill="#E8F3F9" d="m423.525,66.225c-0.87,-3.08 -5.08,-3.493 -6.122,0c-0.959,3.224 -2.104,5.76 -5.403,9.067c-3.302,3.31 -9.33,6.103 -10.958,6.103c-3.12,0 -2.552,6.061 0,6.139c2.554,0.078 6.807,0.91 9.953,4.065c3.147,3.157 5.868,8.58 6.402,10.623c0.534,2.044 4.781,2.442 5.592,-0.541c0.812,-2.986 3.621,-7.019 6.674,-10.083c3.055,-3.062 7.421,-5.157 9.009,-5.042c1.589,0.115 3.775,-5.103 0,-6.139c-3.774,-1.036 -7.076,-1.577 -9.41,-3.917c-2.332,-2.34 -4.677,-6.524 -5.737,-10.275z"/>
  <path id="svg_7" fill="#E8F3F9" d="m475.248,105.529c-0.598,-2.111 -3.484,-2.394 -4.198,0c-0.658,2.209 -1.441,3.949 -3.704,6.217c-2.264,2.27 -6.396,4.185 -7.514,4.185c-2.14,0 -1.75,4.156 0,4.209c1.749,0.054 4.667,0.624 6.824,2.788c2.158,2.165 4.022,5.883 4.389,7.283c0.367,1.402 3.277,1.675 3.835,-0.371c0.555,-2.047 2.481,-4.812 4.576,-6.913s5.089,-3.537 6.178,-3.458c1.09,0.078 2.587,-3.498 0,-4.209c-2.588,-0.71 -4.853,-1.081 -6.453,-2.686c-1.599,-1.604 -3.205,-4.473 -3.933,-7.045z"/>
  <path id="svg_10" fill="#9B64E2" d="m408.069,68.493c1.313,2.391 2.875,4.568 4.499,6.197c1.367,1.371 2.872,2.338 4.424,3.068c-1.517,1.023 -2.909,2.165 -4.023,3.283c-1.698,1.704 -3.585,3.937 -5.163,6.35c-1.338,-2.254 -2.983,-4.547 -4.783,-6.352c-1.429,-1.432 -2.974,-2.518 -4.513,-3.341c2.135,-1.308 4.11,-2.806 5.516,-4.215c1.737,-1.743 3.035,-3.379 4.043,-4.99m0.003,-10.922c-1.251,0 -2.498,0.776 -3.002,2.467c-0.961,3.224 -2.104,5.76 -5.403,9.068c-3.304,3.31 -9.328,6.103 -10.959,6.103c-3.12,0 -2.552,6.061 0,6.139c2.554,0.078 6.807,0.91 9.955,4.064c3.146,3.158 5.866,8.58 6.399,10.623c0.266,1.008 1.43,1.616 2.641,1.616c1.246,0 2.54,-0.643 2.953,-2.156c0.811,-2.986 3.621,-7.018 6.673,-10.083c2.973,-2.982 7.195,-5.046 8.879,-5.046c0.046,0 0.089,0.001 0.13,0.005c0.018,0.001 0.035,0.002 0.053,0.002c1.584,0 3.682,-5.116 -0.053,-6.142c-3.775,-1.036 -7.077,-1.577 -9.41,-3.917c-2.333,-2.339 -4.677,-6.524 -5.738,-10.276c-0.448,-1.587 -1.785,-2.467 -3.118,-2.467l0,0z"/>
  <path id="svg_12" fill="#9B64E2" d="m460.645,108.566c0.588,0.817 1.209,1.562 1.841,2.196c0.329,0.33 0.67,0.631 1.015,0.907c-0.261,0.233 -0.509,0.467 -0.739,0.699c-0.423,0.422 -1.205,1.244 -2.089,2.334c-0.614,-0.831 -1.28,-1.625 -1.987,-2.335c-0.334,-0.334 -0.676,-0.646 -1.024,-0.934c0.637,-0.498 1.217,-1.003 1.71,-1.498c0.463,-0.464 0.886,-0.921 1.273,-1.369m0.13,-10.914c-0.858,0 -1.713,0.531 -2.06,1.69c-0.658,2.209 -1.441,3.949 -3.704,6.217c-2.265,2.27 -6.396,4.185 -7.514,4.185c-2.14,0 -1.75,4.156 0,4.21c1.75,0.053 4.668,0.624 6.824,2.787c2.158,2.165 4.023,5.883 4.389,7.284c0.18,0.691 0.98,1.107 1.812,1.107c0.853,0 1.739,-0.44 2.024,-1.479c0.555,-2.047 2.48,-4.812 4.575,-6.913c2.041,-2.045 4.935,-3.461 6.089,-3.461c0.03,0 0.06,0.001 0.09,0.003c0.012,0.001 0.021,0.002 0.034,0.002c1.088,0 2.524,-3.508 -0.034,-4.211c-2.588,-0.71 -4.854,-1.081 -6.454,-2.687c-1.6,-1.604 -3.205,-4.473 -3.933,-7.045c-0.308,-1.087 -1.224,-1.689 -2.138,-1.689l0,0z"/>
  <path id="svg_13" fill="#E8F3F9" d="m336.986,268.933c-2.098,0 -4.172,0.111 -6.213,0.322c-0.543,-49.181 -40.574,-88.886 -89.883,-88.886c-37.972,0 -70.445,23.544 -83.619,56.83c-5.917,-1.465 -12.104,-2.247 -18.474,-2.247c-42.341,0 -76.664,34.323 -76.664,76.664c0,42.114 33.96,76.293 75.99,76.655l0,0.009l198.864,0c32.955,0 59.674,-26.718 59.674,-59.675c-0.003,-32.955 -26.72,-59.672 -59.675,-59.672z"/>
  <path id="svg_14" stroke-width="10" stroke-miterlimit="10" stroke-linejoin="round" stroke="#65BAE0" fill="none" d="m320.646,252.594c-2.098,0 -4.17,0.111 -6.213,0.322c-0.541,-49.182 -40.572,-88.887 -89.882,-88.887c-37.973,0 -70.446,23.544 -83.619,56.83c-5.917,-1.465 -12.104,-2.247 -18.475,-2.247c-42.34,0 -76.664,34.324 -76.664,76.665c0,42.114 33.96,76.293 75.99,76.655l0,0.009l198.865,0c32.955,0 59.672,-26.718 59.672,-59.675c0,-32.954 -26.718,-59.672 -59.674,-59.672z"/>
  <path id="svg_15" fill="#65BAE0" d="m27.987,275.099c0.548,-7.81 2.183,-15.319 4.758,-22.376c0,-0.107 -0.006,-0.214 -0.006,-0.323c0,-37.817 30.766,-68.583 68.583,-68.583c5.583,0 11.145,0.676 16.53,2.011c1.988,0.492 4.028,-0.562 4.781,-2.462c12.33,-31.156 41.95,-51.287 75.461,-51.287c13.419,0 26.321,3.246 37.841,9.34c8.448,1.434 16.52,3.965 24.067,7.441c-16.715,-16.108 -38.611,-24.951 -61.909,-24.951c-18.258,0 -35.813,5.473 -50.771,15.829c-13.644,9.446 -24.284,22.324 -30.937,37.394c-4.946,-0.985 -9.998,-1.483 -15.064,-1.483c-42.321,0 -76.752,34.432 -76.752,76.752c0,7.7 1.139,15.303 3.384,22.601c0.012,0.031 0.024,0.064 0.034,0.097z"/>
 </g>
</svg>