<?xml version="1.0" ?><!DOCTYPE svg  PUBLIC '-//W3C//DTD SVG 1.1//EN'  'http://www.w3.org/Graphics/SVG/1.1/DTD/svg11.dtd'><svg enable-background="new 0 0 512 512" height="512px" id="Layer_1" version="1.1" viewBox="0 0 512 512" width="512px" xml:space="preserve" xmlns="http://www.w3.org/2000/svg" xmlns:xlink="http://www.w3.org/1999/xlink"><g id="Layer_3"><path d="M397.696,205.913c-2.568,0-5.105,0.136-7.605,0.395c-0.663-60.201-49.663-108.802-110.021-108.802   c-46.48,0-86.229,28.819-102.354,69.563c-7.243-1.793-14.816-2.75-22.614-2.75c-51.827,0-93.841,42.014-93.841,93.842   c0,51.549,41.569,93.387,93.016,93.83V352h243.42c40.339,0,73.043-32.703,73.043-73.045   C470.739,238.617,438.035,205.913,397.696,205.913z" fill="#E8F3F9"/><path d="M377.696,185.913   c-2.568,0-5.105,0.136-7.605,0.395c-0.663-60.201-49.663-108.802-110.021-108.802c-46.48,0-86.229,28.819-102.354,69.563   c-7.243-1.793-14.816-2.75-22.614-2.75c-51.827,0-93.841,42.014-93.841,93.841c0,51.549,41.569,93.387,93.016,93.831V332h243.42   c40.339,0,73.043-32.703,73.043-73.045C450.739,218.617,418.035,185.913,377.696,185.913z" fill="none" stroke="#65BAE0" stroke-linejoin="round" stroke-miterlimit="10" stroke-width="10"/></g><line fill="none" stroke="#65BAE0" stroke-linecap="round" stroke-linejoin="round" stroke-miterlimit="10" stroke-width="10" x1="159.294" x2="129.5" y1="370.5" y2="417.5"/><polygon fill="#65BAE0" points="  348.364,257.916 290.426,350.472 328.491,340.907 294.714,422.257 365.336,318.827 330.385,322.876 " stroke="#65BAE0" stroke-linecap="round" stroke-linejoin="round" stroke-miterlimit="10" stroke-width="10"/><polygon fill="#65BAE0" points="  236.24,346.742 202.918,399.974 224.811,394.474 205.384,441.259 246.001,381.773 225.9,384.104 " stroke="#65BAE0" stroke-linecap="round" stroke-linejoin="round" stroke-miterlimit="10" stroke-width="10"/></svg>