<svg viewBox="0 0 64 64" xml:space="preserve" xmlns="http://www.w3.org/2000/svg" enable-background="new 0 0 64 64"><path d="M2-379.3c-11.4 0-20.7-9.3-20.7-20.7 0-5 1.8-9.9 5.2-13.7l2.2 2c-2.9 3.2-4.4 7.4-4.4 11.7 0 9.8 7.9 17.7 17.7 17.7 2.6 0 5.1-.5 7.4-1.6l1.2 2.7c-2.7 1.3-5.6 1.9-8.6 1.9M17.4-386.2l-2.2-2c2.9-3.2 4.5-7.4 4.5-11.8 0-9.8-7.9-17.7-17.7-17.7-2.6 0-5.1.5-7.4 1.6l-1.2-2.7c2.7-1.2 5.6-1.9 8.6-1.9 11.4 0 20.7 9.3 20.7 20.7 0 5.1-1.9 10-5.3 13.8" transform="translate(30 432)" fill="#ffffff" class="fill-134563"></path><path d="M-9.2-401.6h-3.2v-9.6H-22v-3.2h12.8v12.8M26-385.6H13.2v-12.8h3.2v9.6H26v3.2" transform="translate(30 432)" fill="#ffffff" class="fill-134563"></path></svg>