<?xml version="1.0" encoding="utf-8"?>
<!-- Generator: Adobe Illustrator 27.1.1, SVG Export Plug-In . SVG Version: 6.00 Build 0)  -->
<svg version="1.1" id="Layer_1" xmlns="http://www.w3.org/2000/svg" xmlns:xlink="http://www.w3.org/1999/xlink" x="0px" y="0px"
	 viewBox="0 0 283.5 283.5" style="enable-background:new 0 0 283.5 283.5;" xml:space="preserve">
<style type="text/css">
	.st0{fill:#EC1C24;}
</style>
<g>
	<polygon class="st0" points="122.7,115.9 139.6,115.9 139.6,139.6 141.9,141.4 139.2,144.9 135.6,141.2 135.6,120.1 122.7,120.1 	
		"/>
	<polygon class="st0" points="146.3,137.3 146.3,120.1 159.2,120.1 159.2,115.9 142.3,115.9 142.3,137.3 	"/>
	<polygon class="st0" points="151.3,157.3 141.9,157.3 141.7,157.3 132.3,157.3 129,161.1 132.3,163.9 134.7,161.4 141.7,161.4 
		141.9,161.4 148.9,161.4 151.3,163.9 154.6,161.1 	"/>
	<path class="st0" d="M206.7,135.4c0-1,0-2-0.1-3c0-0.3,0-0.7-0.1-1c0-0.7-0.1-1.3-0.1-2c0-0.4-0.1-0.8-0.1-1.2
		c-0.1-0.6-0.1-1.2-0.2-1.7c-0.1-0.4-0.1-0.8-0.2-1.2c-0.1-0.5-0.2-1.1-0.3-1.6c-0.1-0.4-0.2-0.8-0.2-1.3c-0.1-0.5-0.2-1-0.3-1.6
		c-0.1-0.4-0.2-0.8-0.3-1.3c-0.1-0.5-0.3-1-0.4-1.5c-0.1-0.4-0.2-0.8-0.4-1.3c-0.1-0.5-0.3-1-0.4-1.5c-0.1-0.4-0.3-0.8-0.4-1.2
		c-0.2-0.5-0.3-1-0.5-1.4c-0.2-0.4-0.3-0.8-0.5-1.2c-0.2-0.5-0.4-0.9-0.6-1.4c-0.2-0.4-0.3-0.8-0.5-1.2c-0.2-0.5-0.4-0.9-0.6-1.3
		c-0.2-0.4-0.4-0.8-0.6-1.2c-0.2-0.4-0.4-0.9-0.7-1.3c-0.2-0.4-0.4-0.8-0.6-1.2c-0.2-0.4-0.5-0.8-0.7-1.3c-0.2-0.4-0.4-0.8-0.7-1.1
		c-0.3-0.4-0.5-0.8-0.8-1.2c-0.2-0.4-0.5-0.8-0.7-1.1c-0.3-0.4-0.6-0.8-0.8-1.2c-0.3-0.4-0.5-0.7-0.8-1.1c-0.3-0.4-0.6-0.8-0.9-1.2
		c-0.3-0.3-0.5-0.7-0.8-1c-0.5-0.6-1-1.2-1.5-1.8c-0.4-0.5-0.8-0.9-1.2-1.4c-0.3-0.3-0.6-0.7-0.9-1c-0.3-0.4-0.7-0.7-1-1.1
		c-0.3-0.3-0.6-0.6-0.9-0.9c-0.4-0.3-0.7-0.7-1.1-1c-0.3-0.3-0.6-0.6-0.9-0.9c-0.4-0.3-0.8-0.7-1.1-1c-0.3-0.3-0.6-0.5-1-0.8
		c-0.4-0.3-0.8-0.6-1.2-0.9c-0.3-0.3-0.7-0.5-1-0.8c-0.4-0.3-0.8-0.6-1.2-0.9c-0.3-0.2-0.7-0.5-1-0.7c-0.4-0.3-0.8-0.6-1.3-0.9
		c-0.3-0.2-0.7-0.4-1-0.7c-0.4-0.3-0.9-0.5-1.3-0.8c-0.4-0.2-0.7-0.4-1.1-0.6c-0.5-0.3-0.9-0.5-1.4-0.8c-0.4-0.2-0.7-0.4-1.1-0.6
		c-0.5-0.2-0.9-0.5-1.4-0.7c-0.4-0.2-0.7-0.3-1.1-0.5c-0.5-0.2-1-0.4-1.5-0.7c-0.4-0.2-0.7-0.3-1.1-0.5c-0.5-0.2-1-0.4-1.5-0.6
		c-0.4-0.1-0.7-0.3-1.1-0.4c-0.5-0.2-1-0.4-1.6-0.6c-0.3-0.1-0.7-0.2-1-0.3c-0.6-0.2-1.1-0.4-1.7-0.5c-0.3-0.1-0.6-0.2-0.9-0.2
		c-0.6-0.2-1.2-0.3-1.8-0.5c0,0,0,0,0,0c2.6-3.2,13.3-17.4,10-33.2c0,0-9.5,0.9-17,14c0-8.9-1.7-18.8-8.4-22.7h-0.1
		c-6.7,3.9-8.4,13.7-8.4,22.7c-7.5-13.1-17-14-17-14c-3.3,15.8,7.4,30,10,33.2c0,0,0,0,0,0c-0.6,0.1-1.2,0.3-1.8,0.5
		c-0.3,0.1-0.6,0.2-0.9,0.2c-0.6,0.2-1.1,0.3-1.7,0.5c-0.3,0.1-0.7,0.2-1,0.3c-0.5,0.2-1,0.4-1.6,0.6c-0.4,0.1-0.7,0.3-1.1,0.4
		c-0.5,0.2-1,0.4-1.5,0.6c-0.4,0.2-0.7,0.3-1.1,0.5c-0.5,0.2-1,0.4-1.5,0.7c-0.4,0.2-0.7,0.3-1.1,0.5c-0.5,0.2-0.9,0.5-1.4,0.7
		c-0.4,0.2-0.7,0.4-1.1,0.6c-0.5,0.2-0.9,0.5-1.4,0.8c-0.4,0.2-0.7,0.4-1.1,0.6c-0.4,0.3-0.9,0.5-1.3,0.8c-0.3,0.2-0.7,0.4-1,0.7
		c-0.4,0.3-0.9,0.6-1.3,0.9c-0.3,0.2-0.7,0.5-1,0.7c-0.4,0.3-0.8,0.6-1.2,0.9c-0.3,0.3-0.7,0.5-1,0.8c-0.4,0.3-0.8,0.6-1.2,0.9
		c-0.3,0.3-0.6,0.5-1,0.8c-0.4,0.3-0.8,0.7-1.1,1c-0.3,0.3-0.6,0.6-0.9,0.9c-0.4,0.3-0.7,0.7-1.1,1c-0.3,0.3-0.6,0.6-0.9,0.9
		c-0.3,0.4-0.7,0.7-1,1.1c-0.3,0.3-0.6,0.6-0.9,1c-0.4,0.5-0.8,0.9-1.2,1.4c-0.5,0.6-1,1.2-1.5,1.8c-0.3,0.3-0.5,0.7-0.8,1
		c-0.3,0.4-0.6,0.8-0.9,1.2c-0.3,0.4-0.5,0.7-0.8,1.1c-0.3,0.4-0.6,0.8-0.8,1.2c-0.2,0.4-0.5,0.7-0.7,1.1c-0.3,0.4-0.5,0.8-0.8,1.2
		c-0.2,0.4-0.4,0.8-0.7,1.1c-0.2,0.4-0.5,0.8-0.7,1.3c-0.2,0.4-0.4,0.8-0.6,1.2c-0.2,0.4-0.5,0.9-0.7,1.3c-0.2,0.4-0.4,0.8-0.6,1.2
		c-0.2,0.4-0.4,0.9-0.6,1.3c-0.2,0.4-0.4,0.8-0.5,1.2c-0.2,0.5-0.4,0.9-0.6,1.4c-0.2,0.4-0.3,0.8-0.5,1.2c-0.2,0.5-0.3,0.9-0.5,1.4
		c-0.1,0.4-0.3,0.8-0.4,1.2c-0.2,0.5-0.3,1-0.4,1.5c-0.1,0.4-0.2,0.8-0.4,1.3c-0.1,0.5-0.3,1-0.4,1.5c-0.1,0.4-0.2,0.8-0.3,1.3
		c-0.1,0.5-0.2,1-0.3,1.6c-0.1,0.4-0.2,0.8-0.2,1.3c-0.1,0.5-0.2,1.1-0.3,1.6c-0.1,0.4-0.1,0.8-0.2,1.2c-0.1,0.6-0.1,1.2-0.2,1.7
		c0,0.4-0.1,0.8-0.1,1.2c-0.1,0.6-0.1,1.3-0.1,2c0,0.3,0,0.7-0.1,1c0,1-0.1,2-0.1,3c0,3.2,0.2,6.3,0.7,9.3c-0.3,2.4-0.4,4.8-0.4,7.2
		c0,28.1,17.8,52.1,42.8,61.3c1,0.4,2,0.7,3,1c3.1,1,6.2,1.7,9.5,2.2s6.6,0.8,9.9,0.8c3.4,0,6.7-0.3,9.9-0.8s6.4-1.2,9.5-2.2
		c1-0.3,2-0.7,3-1c25-9.1,42.8-33.1,42.8-61.3c0-2.4-0.1-4.8-0.4-7.2C206.5,141.7,206.7,138.6,206.7,135.4z M162.2,51.1
		c0.4,0.2-1.3,4.2-3.7,9c-2.4,4.7-4.7,8.4-5.1,8.2c-0.4-0.2,1.3-4.2,3.7-9C159.5,54.6,161.8,50.9,162.2,51.1z M152.4,56.5
		c2.4-4.7,4.7-8.4,5.1-8.2c0.4,0.2-1.3,4.2-3.7,9c-2.4,4.7-4.7,8.4-5.1,8.2C148.3,65.3,150,61.3,152.4,56.5z M144.4,41.8
		c0.6,0,1,5.6,1,12.5c0,3.3-0.1,6.2-0.3,8.5c-0.3,1-0.6,2-0.9,3.1c-0.1,0-0.2-0.1-0.3-0.1c-0.4-1.9-0.6-6.3-0.6-11.5
		C143.3,47.4,143.8,41.8,144.4,41.8z M138,41.8c0.6,0,1,5.6,1,12.5c0,5.1-0.3,9.6-0.6,11.5c-0.1,0-0.2,0-0.3,0.1
		c-0.3-1.1-0.6-2.1-0.9-3.1c-0.2-2.2-0.3-5.2-0.3-8.5C137,47.4,137.5,41.8,138,41.8z M133.9,74.2c1.3-2.8,4-4.7,7.3-4.7
		s6,1.9,7.3,4.7c0,0,0,0,0,0c0.4,1,0.7,2.1,0.7,3.2c0,0.3,0,0.6,0,0.8c-0.4,4-3.8,7.2-8,7.2c-4.1,0-7.6-3.2-8-7.2c0-0.3,0-0.6,0-0.8
		C133.2,76.2,133.5,75.2,133.9,74.2C133.9,74.2,133.9,74.2,133.9,74.2z M124.9,48.3c0.4-0.2,2.7,3.5,5.1,8.2c2.4,4.7,4.1,8.8,3.7,9
		c-0.4,0.2-2.7-3.5-5.1-8.2C126.1,52.5,124.5,48.5,124.9,48.3z M123.9,60.1c-2.4-4.7-4.1-8.8-3.7-9c0.4-0.2,2.7,3.5,5.1,8.2
		c2.4,4.7,4.1,8.8,3.7,9C128.7,68.5,126.4,64.8,123.9,60.1z M94.6,191.9c-0.2-0.2-0.3-0.4-0.4-0.5c-0.6-0.7-1.2-1.5-1.8-2.3
		c-0.2-0.2-0.3-0.4-0.5-0.7c-0.2-0.3-0.5-0.7-0.7-1c-0.2-0.3-0.5-0.6-0.7-1c-0.2-0.3-0.4-0.7-0.7-1c-0.2-0.3-0.4-0.7-0.7-1
		c-0.2-0.3-0.4-0.7-0.6-1c-0.2-0.4-0.4-0.7-0.7-1.1c-0.2-0.3-0.4-0.6-0.5-1c-0.2-0.4-0.4-0.8-0.6-1.2c-0.2-0.3-0.3-0.6-0.5-0.9
		c-0.2-0.5-0.5-1-0.7-1.5c-0.1-0.2-0.2-0.5-0.3-0.7c-0.3-0.7-0.6-1.5-0.9-2.2c-0.1-0.2-0.1-0.3-0.2-0.5c-0.2-0.6-0.5-1.2-0.7-1.8
		c-0.1-0.3-0.2-0.6-0.3-0.8c-0.2-0.5-0.3-1-0.5-1.5c-0.1-0.3-0.2-0.6-0.3-0.9c-0.1-0.5-0.3-1-0.4-1.5c-0.1-0.3-0.2-0.6-0.2-0.9
		c-0.1-0.5-0.2-1-0.4-1.5c-0.1-0.3-0.1-0.6-0.2-0.9c-0.1-0.6-0.2-1.1-0.3-1.7c0-0.3-0.1-0.5-0.1-0.8c-0.1-0.8-0.2-1.6-0.3-2.4
		c0,0,0,0,0-0.1c0.4,1,0.8,1.9,1.2,2.9c0.1,0.1,0.1,0.3,0.2,0.4c0.9,1.9,1.8,3.7,2.8,5.5c0.1,0.2,0.2,0.4,0.3,0.5
		c0.4,0.7,0.9,1.5,1.3,2.2c0.1,0.2,0.2,0.3,0.3,0.5c0.5,0.8,1,1.6,1.6,2.3c0.2,0.3,0.4,0.5,0.6,0.8c0.4,0.5,0.8,1.1,1.2,1.6
		c0.2,0.3,0.4,0.5,0.6,0.8c0.6,0.7,1.1,1.3,1.7,2c0.2,0.3,0.5,0.5,0.7,0.8c0.4,0.5,0.8,0.9,1.3,1.3c0.2,0.2,0.3,0.3,0.5,0.5V191.9z
		 M94.6,175.7c-6.3-7.3-10.9-16.1-13.3-25.7c1.8,1.6,4.2,2.5,6.8,2.5c2.4,0,4.6-0.8,6.4-2.2V175.7z M94.6,145.1
		c-1.2,2.4-3.6,4-6.4,4c-4,0-7.2-3.2-7.2-7.2s3.2-7.2,7.2-7.2c2.8,0,5.3,1.6,6.4,4V145.1z M94.6,133.5c-1.8-1.4-4-2.2-6.4-2.2
		c-1.9,0-3.7,0.5-5.3,1.4c0-0.1,0.1-0.2,0.1-0.2c0.3-0.8,0.6-1.6,0.9-2.4c0.1-0.1,0.1-0.3,0.2-0.4c0.3-0.8,0.6-1.5,0.9-2.3
		c0.1-0.2,0.1-0.3,0.2-0.5c0.3-0.7,0.7-1.5,1-2.2c0.1-0.2,0.2-0.3,0.3-0.5c0.4-0.7,0.7-1.4,1.1-2.1c0.1-0.2,0.2-0.3,0.3-0.5
		c0.4-0.7,0.8-1.4,1.2-2.1c0.1-0.1,0.2-0.3,0.3-0.4c0.5-0.7,1-1.5,1.5-2.2c0-0.1,0.1-0.1,0.1-0.2c1.1-1.6,2.3-3.2,3.6-4.7V133.5z
		 M97.2,103.8c-0.4,0.3-0.7,0.7-1.1,1c-0.2,0.2-0.4,0.4-0.6,0.5c-0.4,0.3-0.7,0.7-1,1c-0.2,0.2-0.4,0.4-0.6,0.6
		c-0.4,0.4-0.7,0.8-1.1,1.1c-0.2,0.2-0.3,0.3-0.5,0.5c-0.3,0.4-0.7,0.8-1,1.2c-0.2,0.2-0.3,0.4-0.5,0.6c-0.3,0.4-0.6,0.8-0.9,1.2
		c-0.2,0.2-0.3,0.4-0.5,0.6c-0.3,0.4-0.6,0.8-0.9,1.3c-0.1,0.2-0.3,0.4-0.4,0.6c-0.3,0.4-0.6,0.8-0.9,1.3c-0.1,0.2-0.3,0.4-0.4,0.6
		c-0.3,0.4-0.6,0.9-0.8,1.3c-0.1,0.2-0.3,0.4-0.4,0.6c-0.3,0.4-0.5,0.9-0.8,1.3c-0.1,0.2-0.3,0.4-0.4,0.6c-0.3,0.5-0.5,0.9-0.8,1.4
		c-0.1,0.2-0.2,0.4-0.3,0.6c-0.2,0.5-0.5,0.9-0.7,1.4c-0.1,0.2-0.2,0.4-0.3,0.6c-0.3,0.7-0.6,1.3-0.9,2c0,0,0,0,0,0.1
		c-0.3,0.6-0.5,1.2-0.8,1.8c0,0.1-0.1,0.2-0.1,0.3c-0.3,0.7-0.6,1.4-0.8,2.2c0.1-1.7,0.4-3.4,0.7-5.1c0-0.2,0.1-0.5,0.1-0.7
		c0.1-0.6,0.2-1.2,0.4-1.8c0-0.2,0.1-0.3,0.1-0.5c0.1-0.7,0.3-1.3,0.5-2c0-0.2,0.1-0.3,0.1-0.4c0.2-0.7,0.4-1.3,0.6-2
		c0.1-0.2,0.1-0.4,0.2-0.6c0.2-0.6,0.4-1.2,0.6-1.8c0.1-0.2,0.1-0.4,0.2-0.6c0.2-0.6,0.4-1.2,0.7-1.8c0.1-0.2,0.1-0.3,0.2-0.5
		c0.2-0.6,0.5-1.2,0.8-1.8c0.1-0.1,0.1-0.3,0.2-0.4c0.3-0.6,0.6-1.2,0.9-1.8c0.1-0.1,0.1-0.2,0.2-0.4c0.3-0.6,0.6-1.2,1-1.8
		c0.1-0.1,0.1-0.2,0.2-0.3c0.3-0.6,0.7-1.2,1-1.8c0.1-0.1,0.1-0.2,0.2-0.3c0.4-0.6,0.8-1.2,1.1-1.8c0-0.1,0.1-0.1,0.1-0.2
		c0.4-0.6,0.8-1.2,1.3-1.8c0-0.1,0.1-0.1,0.1-0.2c0.4-0.6,0.9-1.2,1.4-1.8c0,0,0-0.1,0.1-0.1c0.5-0.6,1-1.2,1.5-1.8c0,0,0,0,0,0
		c8.9-10.6,21.4-18.2,35.6-20.9c-0.2,0.8-0.3,1.7-0.3,2.6c0,4,2,7.5,5,9.7c-0.5,0.1-1,0.1-1.5,0.2c-0.3,0-0.5,0.1-0.8,0.1
		c-0.5,0.1-1,0.2-1.5,0.2c-0.3,0-0.5,0.1-0.8,0.1c-0.5,0.1-1,0.2-1.6,0.3c-0.2,0.1-0.5,0.1-0.8,0.1c-0.5,0.1-1,0.2-1.6,0.4
		c-0.2,0.1-0.5,0.1-0.7,0.2c-0.5,0.1-1,0.3-1.6,0.4c-0.2,0.1-0.5,0.1-0.7,0.2c-0.5,0.1-1,0.3-1.5,0.5c-0.2,0.1-0.5,0.1-0.7,0.2
		c-0.5,0.2-1,0.3-1.5,0.5c-0.2,0.1-0.5,0.2-0.7,0.2c-0.5,0.2-1,0.4-1.4,0.6c-0.2,0.1-0.5,0.2-0.7,0.3c-0.5,0.2-1,0.4-1.4,0.6
		c-0.2,0.1-0.4,0.2-0.7,0.3c-0.5,0.2-1,0.5-1.4,0.7c-0.2,0.1-0.4,0.2-0.6,0.3c-0.5,0.2-0.9,0.5-1.4,0.7c-0.2,0.1-0.4,0.2-0.6,0.3
		c-0.5,0.3-0.9,0.5-1.4,0.8c-0.2,0.1-0.4,0.2-0.6,0.3c-0.5,0.3-0.9,0.6-1.4,0.8c-0.2,0.1-0.4,0.2-0.6,0.4c-0.5,0.3-0.9,0.6-1.4,0.9
		c-0.2,0.1-0.4,0.2-0.5,0.4c-0.4,0.3-0.9,0.6-1.3,0.9c-0.2,0.1-0.4,0.3-0.6,0.4c-0.4,0.3-0.8,0.6-1.2,0.9c-0.2,0.1-0.4,0.3-0.6,0.4
		c-0.4,0.3-0.8,0.7-1.2,1c-0.2,0.2-0.4,0.3-0.5,0.5c-0.4,0.3-0.8,0.7-1.2,1C97.6,103.5,97.4,103.6,97.2,103.8z M103.6,200.4
		c-0.1,0-0.1-0.1-0.2-0.1c-0.7-0.6-1.4-1.1-2.1-1.7c-0.1-0.1-0.2-0.2-0.3-0.3c-0.7-0.6-1.4-1.3-2.1-1.9c0,0-0.1-0.1-0.1-0.1v-11.1
		c0.1,0,0.1,0.1,0.2,0.1c0.7,0.6,1.4,1.1,2.1,1.7c0.1,0.1,0.2,0.1,0.3,0.2c0.8,0.6,1.5,1.2,2.3,1.7V200.4z M103.6,184.3
		c-1.7-1.3-3.3-2.7-4.8-4.1v-47l4.8,4.8V184.3z M112.5,206.2c-0.1-0.1-0.2-0.1-0.3-0.2c-0.7-0.4-1.3-0.7-2-1.1
		c-0.1-0.1-0.2-0.1-0.4-0.2c-0.7-0.4-1.3-0.8-2-1.2c0,0-0.1,0-0.1-0.1v-11.7c0.1,0.1,0.3,0.1,0.4,0.2c0.6,0.3,1.1,0.6,1.7,1
		c0.2,0.1,0.5,0.3,0.7,0.4c0.5,0.3,1,0.5,1.5,0.8c0.1,0.1,0.3,0.1,0.4,0.2V206.2z M112.5,190c-1.6-0.9-3.2-1.8-4.7-2.8v-25.1
		l4.7,4.7V190z M121,209.9c0,0-0.1,0-0.1,0c-0.6-0.2-1.2-0.5-1.9-0.7c-0.2-0.1-0.3-0.1-0.5-0.2c-0.6-0.2-1.1-0.5-1.7-0.7
		c-0.1,0-0.2-0.1-0.2-0.1v-12.1c0,0,0,0,0,0c0.7,0.3,1.4,0.5,2.1,0.8c0,0,0.1,0,0.1,0.1c0.7,0.2,1.3,0.5,2,0.7c0,0,0.1,0,0.1,0
		V209.9z M121,193.7c-1.5-0.5-2.9-1.1-4.4-1.7v-21l4.4,4.4V193.7z M134.4,213c-0.1,0-0.3,0-0.4,0c-0.6-0.1-1.2-0.2-1.8-0.2
		c-0.1,0-0.3,0-0.4-0.1c-2.2-0.3-4.4-0.8-6.6-1.4v-12.3c0.2,0,0.3,0.1,0.5,0.1c0.5,0.1,1,0.2,1.5,0.3c0.3,0.1,0.6,0.1,0.9,0.2
		c0.5,0.1,1,0.2,1.5,0.3c0.3,0.1,0.6,0.1,0.9,0.2c0.5,0.1,1,0.2,1.5,0.2c0.3,0,0.6,0.1,0.9,0.1c0.5,0.1,1,0.1,1.4,0.2
		c0.2,0,0.4,0,0.6,0.1c-1.7,1.6-2.8,3.9-2.8,6.4C132,209.3,132.9,211.4,134.4,213z M125.2,195v-3.8l7.7,5.4
		C130.3,196.2,127.7,195.7,125.2,195z M141.2,211.4c-2.2-0.3-4-2.1-4-4.5c0-2.3,1.7-4.2,4-4.5c2.2,0.3,4,2.1,4,4.5
		C145.2,209.3,143.5,211.2,141.2,211.4z M157.3,211.2c-2.2,0.6-4.4,1-6.6,1.4c-0.1,0-0.3,0-0.4,0.1c-0.6,0.1-1.2,0.2-1.8,0.2
		c-0.1,0-0.3,0-0.4,0c1.5-1.6,2.4-3.7,2.4-6c0-2.5-1.1-4.8-2.8-6.4c0.2,0,0.4,0,0.6-0.1c0.5-0.1,1-0.1,1.4-0.2
		c0.3,0,0.6-0.1,0.9-0.1c0.5-0.1,1-0.1,1.5-0.2c0.3,0,0.6-0.1,0.9-0.2c0.5-0.1,1-0.2,1.5-0.3c0.3-0.1,0.6-0.1,0.9-0.2
		c0.5-0.1,1-0.2,1.5-0.3c0.2,0,0.3-0.1,0.5-0.1V211.2z M157.3,195c-2.5,0.7-5.1,1.2-7.7,1.5l7.7-5.4V195z M154,182.9L154,182.9
		l3.3-3.3v6.5l-15.9,11c-0.1,0-0.1,0-0.2,0c-0.1,0-0.1,0-0.2,0l-15.9-11v-6.5l3.2,3.2l0.1,0.1h0.5h13.9h4.5h6.1H154 M154,182.9
		 M165.8,208.2c-0.1,0-0.2,0.1-0.2,0.1c-0.6,0.2-1.1,0.5-1.7,0.7c-0.2,0.1-0.3,0.1-0.5,0.2c-0.6,0.2-1.2,0.5-1.9,0.7
		c0,0-0.1,0-0.1,0v-12.2c0,0,0.1,0,0.1,0c0.7-0.2,1.4-0.5,2-0.7c0,0,0.1,0,0.1-0.1c0.7-0.3,1.4-0.5,2.1-0.8c0,0,0,0,0,0V208.2z
		 M165.8,192c-1.4,0.6-2.9,1.2-4.4,1.7v-18.3l4.4-4.4V192z M174.7,203.4C174.7,203.4,174.6,203.5,174.7,203.4
		c-0.7,0.5-1.4,0.9-2.1,1.3c-0.1,0.1-0.2,0.1-0.4,0.2c-0.6,0.4-1.3,0.7-2,1.1c-0.1,0.1-0.2,0.1-0.3,0.2v-12c0.1-0.1,0.3-0.1,0.4-0.2
		c0.5-0.3,1-0.5,1.5-0.8c0.2-0.1,0.5-0.3,0.7-0.4c0.6-0.3,1.1-0.6,1.7-1c0.1-0.1,0.3-0.1,0.4-0.2V203.4z M174.7,187.2
		c-1.5,1-3.1,1.9-4.7,2.8v-23.1l4.7-4.7V187.2z M183.7,196.3C183.7,196.3,183.6,196.3,183.7,196.3c-0.8,0.7-1.5,1.4-2.2,2
		c-0.1,0.1-0.2,0.2-0.3,0.3c-0.7,0.6-1.4,1.2-2.1,1.7c-0.1,0-0.1,0.1-0.2,0.1V189c0.8-0.6,1.6-1.1,2.3-1.7c0.1-0.1,0.2-0.1,0.3-0.2
		c0.7-0.5,1.4-1.1,2.1-1.7c0.1,0,0.1-0.1,0.2-0.1V196.3z M183.7,180.1c-1.5,1.5-3.1,2.8-4.8,4.1V138l4.8-4.8V180.1z M183.7,129
		l-0.9-0.9l-4,4v-26.8h-4.2v31l-11.4,11.4l3,3l8.5-8.5v14.1l-22.5,22.5h-4.8h-4.5h-12.7l-22.5-22.5v-14.1l8.5,8.5l3-3l-11.4-11.4
		v-31h-4.2v26.8l-4-4l-0.9,0.9v-21.4c0,0,0.1-0.1,0.1-0.1c0.6-0.6,1.3-1.2,2-1.8c0.1-0.1,0.1-0.1,0.2-0.2c0.7-0.6,1.3-1.1,2-1.7
		c0.1-0.1,0.2-0.1,0.2-0.2c0.7-0.5,1.3-1,2-1.5c0.1-0.1,0.2-0.1,0.3-0.2c0.7-0.5,1.3-0.9,2-1.4c0.1-0.1,0.3-0.2,0.4-0.2
		c0.7-0.4,1.3-0.8,2-1.3c0.2-0.1,0.3-0.2,0.5-0.3c0.7-0.4,1.3-0.8,2-1.1c0.2-0.1,0.4-0.2,0.5-0.3c0.7-0.3,1.3-0.7,2-1
		c0.2-0.1,0.4-0.2,0.6-0.3c0.6-0.3,1.3-0.6,2-0.9c0.2-0.1,0.5-0.2,0.7-0.3c0.6-0.3,1.3-0.5,1.9-0.7c0.3-0.1,0.5-0.2,0.8-0.3
		c0.6-0.2,1.3-0.4,1.9-0.6c0.3-0.1,0.6-0.2,0.9-0.3c0.6-0.2,1.3-0.4,1.9-0.5c0.3-0.1,0.6-0.2,0.9-0.2c0.6-0.2,1.2-0.3,1.9-0.4
		c0.3-0.1,0.7-0.1,1-0.2c0.6-0.1,1.2-0.2,1.9-0.3c0.3-0.1,0.7-0.1,1-0.2c0.6-0.1,1.3-0.2,1.9-0.2c0.3,0,0.7-0.1,1-0.1
		c0.7-0.1,1.4-0.1,2.1-0.2c0.3,0,0.6-0.1,0.9-0.1c1,0,2-0.1,3-0.1c1,0,2,0,3,0.1c0.3,0,0.6,0,0.9,0.1c0.7,0,1.4,0.1,2.1,0.2
		c0.3,0,0.7,0.1,1,0.1c0.6,0.1,1.3,0.1,1.9,0.2c0.3,0.1,0.7,0.1,1,0.2c0.6,0.1,1.2,0.2,1.9,0.3c0.3,0.1,0.7,0.1,1,0.2
		c0.6,0.1,1.2,0.3,1.9,0.4c0.3,0.1,0.6,0.2,0.9,0.2c0.6,0.2,1.3,0.3,1.9,0.5c0.3,0.1,0.6,0.2,0.9,0.3c0.6,0.2,1.3,0.4,1.9,0.6
		c0.3,0.1,0.5,0.2,0.8,0.3c0.7,0.2,1.3,0.5,1.9,0.7c0.2,0.1,0.5,0.2,0.7,0.3c0.7,0.3,1.3,0.6,2,0.9c0.2,0.1,0.4,0.2,0.6,0.3
		c0.7,0.3,1.3,0.6,2,1c0.2,0.1,0.4,0.2,0.5,0.3c0.7,0.4,1.3,0.7,2,1.1c0.2,0.1,0.3,0.2,0.5,0.3c0.7,0.4,1.4,0.8,2,1.3
		c0.1,0.1,0.3,0.2,0.4,0.2c0.7,0.4,1.4,0.9,2,1.4c0.1,0.1,0.2,0.1,0.3,0.2c0.7,0.5,1.4,1,2,1.5c0.1,0.1,0.2,0.1,0.2,0.2
		c0.7,0.5,1.3,1.1,2,1.7c0.1,0.1,0.1,0.1,0.2,0.2c0.7,0.6,1.3,1.2,2,1.8c0,0,0.1,0.1,0.1,0.1V129z M202.2,159.3
		c-0.1,0.8-0.2,1.6-0.3,2.4c0,0.3-0.1,0.5-0.1,0.8c-0.1,0.6-0.2,1.1-0.3,1.7c-0.1,0.3-0.1,0.6-0.2,0.9c-0.1,0.5-0.2,1-0.4,1.5
		c-0.1,0.3-0.2,0.6-0.2,0.9c-0.1,0.5-0.3,1-0.4,1.5c-0.1,0.3-0.2,0.6-0.3,0.9c-0.2,0.5-0.3,1-0.5,1.5c-0.1,0.3-0.2,0.6-0.3,0.8
		c-0.2,0.6-0.4,1.2-0.7,1.8c-0.1,0.2-0.1,0.3-0.2,0.5c-0.3,0.8-0.6,1.5-0.9,2.2c-0.1,0.2-0.2,0.5-0.3,0.7c-0.2,0.5-0.5,1-0.7,1.5
		c-0.2,0.3-0.3,0.6-0.5,0.9c-0.2,0.4-0.4,0.8-0.6,1.2c-0.2,0.3-0.4,0.6-0.5,1c-0.2,0.4-0.4,0.8-0.7,1.1c-0.2,0.3-0.4,0.7-0.6,1
		c-0.2,0.4-0.4,0.7-0.7,1c-0.2,0.3-0.4,0.7-0.7,1c-0.2,0.3-0.4,0.6-0.7,1c-0.2,0.3-0.5,0.7-0.7,1c-0.2,0.2-0.3,0.5-0.5,0.7
		c-0.6,0.8-1.2,1.5-1.8,2.3c-0.1,0.2-0.3,0.4-0.4,0.5v-10.5c0.2-0.2,0.3-0.3,0.5-0.5c0.4-0.4,0.8-0.9,1.3-1.3
		c0.2-0.3,0.5-0.5,0.7-0.8c0.6-0.7,1.1-1.3,1.7-2c0.2-0.3,0.4-0.5,0.6-0.8c0.4-0.5,0.8-1.1,1.2-1.6c0.2-0.2,0.4-0.5,0.6-0.8
		c0.5-0.8,1.1-1.5,1.6-2.3c0.1-0.2,0.2-0.3,0.3-0.5c0.5-0.7,0.9-1.4,1.3-2.2c0.1-0.2,0.2-0.4,0.3-0.5c1-1.8,2-3.6,2.8-5.5
		c0.1-0.1,0.1-0.3,0.2-0.4C201.4,161.2,201.8,160.2,202.2,159.3C202.2,159.3,202.2,159.3,202.2,159.3z M194.3,134.7
		c4,0,7.2,3.2,7.2,7.2s-3.2,7.2-7.2,7.2c-2.8,0-5.3-1.6-6.4-4v-6.4C189,136.4,191.5,134.7,194.3,134.7z M187.9,133.5V112
		c1.3,1.5,2.5,3,3.6,4.7c0,0.1,0.1,0.1,0.1,0.2c0.5,0.7,1,1.5,1.5,2.2c0.1,0.1,0.2,0.3,0.3,0.4c0.4,0.7,0.8,1.4,1.2,2.1
		c0.1,0.2,0.2,0.3,0.3,0.5c0.4,0.7,0.8,1.4,1.1,2.1c0.1,0.2,0.2,0.3,0.3,0.5c0.4,0.7,0.7,1.4,1,2.2c0.1,0.2,0.1,0.3,0.2,0.5
		c0.3,0.8,0.6,1.5,0.9,2.3c0.1,0.1,0.1,0.3,0.2,0.4c0.3,0.8,0.6,1.6,0.9,2.4c0,0.1,0.1,0.2,0.1,0.2c-1.6-0.9-3.3-1.4-5.3-1.4
		C191.9,131.3,189.7,132.1,187.9,133.5z M194.3,152.5c2.6,0,5-0.9,6.8-2.5c-2.4,9.7-7,18.4-13.3,25.7v-25.4
		C189.7,151.7,191.9,152.5,194.3,152.5z M201.8,127.9c0-0.1-0.1-0.2-0.1-0.3c-0.2-0.6-0.5-1.2-0.8-1.8c0,0,0,0,0-0.1
		c-0.3-0.7-0.6-1.4-0.9-2c-0.1-0.2-0.2-0.4-0.3-0.6c-0.2-0.5-0.5-1-0.7-1.4c-0.1-0.2-0.2-0.4-0.3-0.6c-0.3-0.5-0.5-0.9-0.8-1.4
		c-0.1-0.2-0.2-0.4-0.4-0.6c-0.3-0.4-0.5-0.9-0.8-1.3c-0.1-0.2-0.3-0.4-0.4-0.6c-0.3-0.4-0.6-0.9-0.8-1.3c-0.1-0.2-0.3-0.4-0.4-0.6
		c-0.3-0.4-0.6-0.9-0.9-1.3c-0.1-0.2-0.3-0.4-0.4-0.6c-0.3-0.4-0.6-0.8-0.9-1.3c-0.2-0.2-0.3-0.4-0.5-0.6c-0.3-0.4-0.6-0.8-0.9-1.2
		c-0.2-0.2-0.3-0.4-0.5-0.6c-0.3-0.4-0.7-0.8-1-1.2c-0.2-0.2-0.3-0.3-0.5-0.5c-0.3-0.4-0.7-0.8-1.1-1.1c-0.2-0.2-0.4-0.4-0.6-0.6
		c-0.3-0.4-0.7-0.7-1-1c-0.2-0.2-0.4-0.4-0.6-0.5c-0.4-0.3-0.7-0.7-1.1-1c-0.2-0.2-0.3-0.3-0.5-0.5c-0.4-0.3-0.8-0.7-1.2-1
		c-0.2-0.2-0.4-0.3-0.5-0.5c-0.4-0.3-0.8-0.7-1.2-1c-0.2-0.1-0.4-0.3-0.6-0.4c-0.4-0.3-0.8-0.6-1.2-0.9c-0.2-0.1-0.4-0.3-0.6-0.4
		c-0.4-0.3-0.9-0.6-1.3-0.9c-0.2-0.1-0.4-0.2-0.5-0.4c-0.4-0.3-0.9-0.6-1.4-0.9c-0.2-0.1-0.4-0.2-0.6-0.4c-0.5-0.3-0.9-0.6-1.4-0.8
		c-0.2-0.1-0.4-0.2-0.6-0.3c-0.5-0.3-0.9-0.5-1.4-0.8c-0.2-0.1-0.4-0.2-0.6-0.3c-0.5-0.2-0.9-0.5-1.4-0.7c-0.2-0.1-0.4-0.2-0.6-0.3
		c-0.5-0.2-1-0.5-1.4-0.7c-0.2-0.1-0.4-0.2-0.7-0.3c-0.5-0.2-1-0.4-1.4-0.6c-0.2-0.1-0.5-0.2-0.7-0.3c-0.5-0.2-1-0.4-1.4-0.6
		c-0.2-0.1-0.5-0.2-0.7-0.2c-0.5-0.2-1-0.4-1.5-0.5c-0.2-0.1-0.5-0.1-0.7-0.2c-0.5-0.2-1-0.3-1.5-0.5c-0.2-0.1-0.5-0.1-0.7-0.2
		c-0.5-0.1-1-0.3-1.6-0.4c-0.2-0.1-0.5-0.1-0.7-0.2c-0.5-0.1-1-0.3-1.6-0.4c-0.2-0.1-0.5-0.1-0.8-0.1c-0.5-0.1-1-0.2-1.6-0.3
		c-0.3,0-0.5-0.1-0.8-0.1c-0.5-0.1-1-0.2-1.5-0.2c-0.3,0-0.5-0.1-0.8-0.1c-0.5-0.1-1-0.1-1.5-0.2c3-2.2,5-5.7,5-9.7
		c0-0.9-0.1-1.7-0.3-2.6c14.2,2.7,26.7,10.3,35.6,20.9c0,0,0,0,0,0c0.5,0.6,1,1.2,1.5,1.8c0,0,0,0.1,0.1,0.1
		c0.5,0.6,0.9,1.2,1.4,1.8c0,0.1,0.1,0.1,0.1,0.2c0.4,0.6,0.8,1.2,1.3,1.8c0,0.1,0.1,0.1,0.1,0.2c0.4,0.6,0.8,1.2,1.1,1.8
		c0.1,0.1,0.1,0.2,0.2,0.3c0.4,0.6,0.7,1.2,1,1.8c0.1,0.1,0.1,0.2,0.2,0.3c0.3,0.6,0.6,1.2,1,1.8c0.1,0.1,0.1,0.2,0.2,0.4
		c0.3,0.6,0.6,1.2,0.9,1.8c0.1,0.1,0.1,0.3,0.2,0.4c0.3,0.6,0.5,1.2,0.8,1.8c0.1,0.2,0.1,0.3,0.2,0.5c0.2,0.6,0.4,1.2,0.7,1.8
		c0.1,0.2,0.1,0.4,0.2,0.6c0.2,0.6,0.4,1.2,0.6,1.8c0.1,0.2,0.1,0.4,0.2,0.6c0.2,0.7,0.4,1.3,0.6,2c0,0.2,0.1,0.3,0.1,0.4
		c0.2,0.6,0.3,1.3,0.5,2c0,0.2,0.1,0.3,0.1,0.5c0.1,0.6,0.2,1.2,0.4,1.8c0,0.2,0.1,0.5,0.1,0.7c0.3,1.7,0.5,3.4,0.7,5.1
		C202.4,129.3,202.1,128.6,201.8,127.9z"/>
	<path class="st0" d="M105.5,239.6c0-7.7-6.3-14-14-14c-7.7,0-14,6.3-14,14c0,7.5,5.9,13.6,13.3,13.9v0H103h0.6l-5.2-1.9
		C102.7,249.3,105.5,244.8,105.5,239.6z M82.2,239.6c0-5.2,4.2-9.4,9.4-9.4c5.2,0,9.4,4.2,9.4,9.4c0,5.2-4.2,9.4-9.4,9.4
		C86.4,249,82.2,244.8,82.2,239.6z"/>
	<path class="st0" d="M207.7,239.6c0-7.7-6.3-14-14-14c-7.7,0-14,6.3-14,14c0,7.5,5.9,13.6,13.3,13.9v0h12.1h0.6l-5.2-1.9
		C204.9,249.3,207.7,244.8,207.7,239.6z M184.4,239.6c0-5.2,4.2-9.4,9.4-9.4s9.4,4.2,9.4,9.4c0,5.2-4.2,9.4-9.4,9.4
		S184.4,244.8,184.4,239.6z"/>
	<path class="st0" d="M119.3,224.4l-13.4,29.2h5.4l2.1-4.6h11.6l2,4.6h5.3L119.3,224.4z M114.3,245.2l4.7-11.1l4.8,11.1H114.3z"/>
	<path class="st0" d="M166,224.4l-13.4,29.2h5.4l2.1-4.6h11.6l2,4.6h5.3L166,224.4z M161.1,245.2l4.7-11.1l4.8,11.1H161.1z"/>
	<path class="st0" d="M145.2,225.6h-11.5v28h4.8v-11.1h5.2c1.8,0,3.6-0.4,5.2-1.4c1.8-1.2,3.6-3.2,3.5-6.9
		C152.4,234.1,152.5,225.9,145.2,225.6z M148.5,233.6c0.2,4.3-3.4,4.5-3.4,4.5h-7.2v-8.9h7.5C148.6,229.4,148.5,233.6,148.5,233.6z"
		/>
</g>
</svg>
